<svg xmlns="http://www.w3.org/2000/svg" style="display: none;">
    <symbol id="denied-icon" viewBox="0 0 507.2 507.2">
        <title>Denied</title>
        <circle style="fill:#F15249;" cx="253.6" cy="253.6" r="253.6"/><path style="fill:#AD0E0E;" d="M147.2,368L284,504.8c115.2-13.6,206.4-104,220.8-219.2L367.2,148L147.2,368z"/><path style="fill:#FFFFFF;" d="M373.6,309.6c11.2,11.2,11.2,30.4,0,41.6l-22.4,22.4c-11.2,11.2-30.4,11.2-41.6,0l-176-176 c-11.2-11.2-11.2-30.4,0-41.6l23.2-23.2c11.2-11.2,30.4-11.2,41.6,0L373.6,309.6z"/><path style="fill:#D6D6D6;" d="M280.8,216L216,280.8l93.6,92.8c11.2,11.2,30.4,11.2,41.6,0l23.2-23.2c11.2-11.2,11.2-30.4,0-41.6 L280.8,216z"/><path style="fill:#FFFFFF;" d="M309.6,133.6c11.2-11.2,30.4-11.2,41.6,0l23.2,23.2c11.2,11.2,11.2,30.4,0,41.6L197.6,373.6 c-11.2,11.2-30.4,11.2-41.6,0l-22.4-22.4c-11.2-11.2-11.2-30.4,0-41.6L309.6,133.6z"/>
    </symbol>
    <symbol id="undecided-icon" viewBox="0 0 512 512">
        <title>Submitted</title>
    </symbol>
    <symbol id="approved-icon" viewBox="0 0 507.2 507.2">
        <title>Approved</title>
        <circle style="fill:#32BA7C;" cx="253.6" cy="253.6" r="253.6"/><path style="fill:#0AA06E;" d="M188.8,368l130.4,130.4c108-28.8,188-127.2,188-244.8c0-2.4,0-4.8,0-7.2L404.8,152L188.8,368z"/><g> <path style="fill:#FFFFFF;" d="M260,310.4c11.2,11.2,11.2,30.4,0,41.6l-23.2,23.2c-11.2,11.2-30.4,11.2-41.6,0L93.6,272.8 c-11.2-11.2-11.2-30.4,0-41.6l23.2-23.2c11.2-11.2,30.4-11.2,41.6,0L260,310.4z"/> <path style="fill:#FFFFFF;" d="M348.8,133.6c11.2-11.2,30.4-11.2,41.6,0l23.2,23.2c11.2,11.2,11.2,30.4,0,41.6l-176,175.2 c-11.2,11.2-30.4,11.2-41.6,0l-23.2-23.2c-11.2-11.2-11.2-30.4,0-41.6L348.8,133.6z"/> </g>
    </symbol>
    <symbol id="ordered-icon" viewBox="0 0 500 500">
        <title>Purchased</title>
    </symbol>
    <symbol id="delivered-icon" viewBox="0 0 512 512">
        <title>Delivered</title>
        <path style="fill:#C7AA92;" d="M238.534,511.319L17.126,383.49V127.83L238.534,0l221.408,127.83v255.66L238.534,511.319z"/><polygon style="fill:#BD9475;" points="238.534,0 17.126,127.83 238.534,255.66 238.534,511.319 459.942,383.49 459.942,127.83 "/><polygon style="fill:#9E7957;" points="238.534,0 238.534,511.319 459.942,383.49 459.942,127.83 "/><polygon style="fill:#936C4C;" points="238.534,255.66 238.534,511.319 459.942,383.49 459.942,127.83 "/><polygon style="fill:#FFEA84;" points="112.811,72.586 334.218,200.417 364.258,183.073 142.851,55.243 "/><polygon style="fill:#FFDC40;" points="238.534,110.487 238.534,145.174 334.218,200.417 364.258,183.073 "/><path style="fill:#8FE673;" d="M379.721,512c-63.495,0-115.153-51.657-115.153-115.153s51.658-115.153,115.153-115.153 s115.153,51.657,115.153,115.153S443.217,512,379.721,512z"/><path style="fill:#76CC5B;" d="M379.763,281.695v230.304c63.476-0.022,115.111-51.671,115.111-115.153 S443.239,281.718,379.763,281.695z"/><polygon style="fill:#FFFFFF;" points="366.27,445.099 322.939,402.206 344.073,380.858 366.104,402.666 415.287,353.211 436.586,374.395 "/><polygon style="fill:#F2F2F4;" points="379.763,431.532 436.586,374.395 415.287,353.211 379.763,388.932 "/>
    </symbol>
</svg>